<svg id="visual" viewBox="0 0 960 100" width="960" height="100" xmlns="http://www.w3.org/2000/svg" xmlns:xlink="http://www.w3.org/1999/xlink" version="1.1"><rect x="0" y="0" width="960" height="100" fill="#fff"></rect><path d="M0 29L7 29.7C14 30.3 28 31.7 41.8 32.5C55.7 33.3 69.3 33.7 83.2 30.8C97 28 111 22 125 18.2C139 14.3 153 12.7 167 13.3C181 14 195 17 208.8 15.8C222.7 14.7 236.3 9.3 250.2 10.3C264 11.3 278 18.7 292 18C306 17.3 320 8.7 334 8.8C348 9 362 18 375.8 21.3C389.7 24.7 403.3 22.3 417.2 23.3C431 24.3 445 28.7 459 28.3C473 28 487 23 501 22.5C515 22 529 26 542.8 28.5C556.7 31 570.3 32 584.2 28.5C598 25 612 17 626 16C640 15 654 21 668 22.2C682 23.3 696 19.7 709.8 18.7C723.7 17.7 737.3 19.3 751.2 19.3C765 19.3 779 17.7 793 19.8C807 22 821 28 835 26.8C849 25.7 863 17.3 876.8 15.5C890.7 13.7 904.3 18.3 918.2 17.3C932 16.3 946 9.7 953 6.3L960 3L960 101L953 101C946 101 932 101 918.2 101C904.3 101 890.7 101 876.8 101C863 101 849 101 835 101C821 101 807 101 793 101C779 101 765 101 751.2 101C737.3 101 723.7 101 709.8 101C696 101 682 101 668 101C654 101 640 101 626 101C612 101 598 101 584.2 101C570.3 101 556.7 101 542.8 101C529 101 515 101 501 101C487 101 473 101 459 101C445 101 431 101 417.2 101C403.3 101 389.7 101 375.8 101C362 101 348 101 334 101C320 101 306 101 292 101C278 101 264 101 250.2 101C236.3 101 222.7 101 208.8 101C195 101 181 101 167 101C153 101 139 101 125 101C111 101 97 101 83.2 101C69.3 101 55.7 101 41.8 101C28 101 14 101 7 101L0 101Z" fill="#f97316"></path><path d="M0 50L7 45.7C14 41.3 28 32.7 41.8 30.5C55.7 28.3 69.3 32.7 83.2 37.5C97 42.3 111 47.7 125 45.3C139 43 153 33 167 32.2C181 31.3 195 39.7 208.8 43.5C222.7 47.3 236.3 46.7 250.2 42.8C264 39 278 32 292 31.2C306 30.3 320 35.7 334 37C348 38.3 362 35.7 375.8 33.7C389.7 31.7 403.3 30.3 417.2 30.8C431 31.3 445 33.7 459 37.5C473 41.3 487 46.7 501 48.2C515 49.7 529 47.3 542.8 42.5C556.7 37.7 570.3 30.3 584.2 30.7C598 31 612 39 626 43.5C640 48 654 49 668 49.7C682 50.3 696 50.7 709.8 48.3C723.7 46 737.3 41 751.2 38.5C765 36 779 36 793 35.7C807 35.3 821 34.7 835 35C849 35.3 863 36.7 876.8 34.5C890.7 32.3 904.3 26.7 918.2 25.3C932 24 946 27 953 28.5L960 30L960 101L953 101C946 101 932 101 918.2 101C904.3 101 890.7 101 876.8 101C863 101 849 101 835 101C821 101 807 101 793 101C779 101 765 101 751.2 101C737.3 101 723.7 101 709.8 101C696 101 682 101 668 101C654 101 640 101 626 101C612 101 598 101 584.2 101C570.3 101 556.7 101 542.8 101C529 101 515 101 501 101C487 101 473 101 459 101C445 101 431 101 417.2 101C403.3 101 389.7 101 375.8 101C362 101 348 101 334 101C320 101 306 101 292 101C278 101 264 101 250.2 101C236.3 101 222.7 101 208.8 101C195 101 181 101 167 101C153 101 139 101 125 101C111 101 97 101 83.2 101C69.3 101 55.7 101 41.8 101C28 101 14 101 7 101L0 101Z" fill="#c43456"></path><path d="M0 60L7 56.8C14 53.7 28 47.3 41.8 50C55.7 52.7 69.3 64.3 83.2 70C97 75.7 111 75.3 125 74.3C139 73.3 153 71.7 167 70.3C181 69 195 68 208.8 66.7C222.7 65.3 236.3 63.7 250.2 61.7C264 59.7 278 57.3 292 56.7C306 56 320 57 334 57.2C348 57.3 362 56.7 375.8 56.2C389.7 55.7 403.3 55.3 417.2 56C431 56.7 445 58.3 459 58.7C473 59 487 58 501 61C515 64 529 71 542.8 68.3C556.7 65.7 570.3 53.3 584.2 52.8C598 52.3 612 63.7 626 69.8C640 76 654 77 668 71.5C682 66 696 54 709.8 48.2C723.7 42.3 737.3 42.7 751.2 42.2C765 41.7 779 40.3 793 45.3C807 50.3 821 61.7 835 62C849 62.3 863 51.7 876.8 47.5C890.7 43.3 904.3 45.7 918.2 47.7C932 49.7 946 51.3 953 52.2L960 53L960 101L953 101C946 101 932 101 918.2 101C904.3 101 890.7 101 876.8 101C863 101 849 101 835 101C821 101 807 101 793 101C779 101 765 101 751.2 101C737.3 101 723.7 101 709.8 101C696 101 682 101 668 101C654 101 640 101 626 101C612 101 598 101 584.2 101C570.3 101 556.7 101 542.8 101C529 101 515 101 501 101C487 101 473 101 459 101C445 101 431 101 417.2 101C403.3 101 389.7 101 375.8 101C362 101 348 101 334 101C320 101 306 101 292 101C278 101 264 101 250.2 101C236.3 101 222.7 101 208.8 101C195 101 181 101 167 101C153 101 139 101 125 101C111 101 97 101 83.2 101C69.3 101 55.7 101 41.8 101C28 101 14 101 7 101L0 101Z" fill="#662a5a"></path><path d="M0 60L7 65C14 70 28 80 41.8 83.3C55.7 86.7 69.3 83.3 83.2 81.8C97 80.3 111 80.7 125 81.3C139 82 153 83 167 84.7C181 86.3 195 88.7 208.8 90.8C222.7 93 236.3 95 250.2 95.5C264 96 278 95 292 92.5C306 90 320 86 334 83.5C348 81 362 80 375.8 80.3C389.7 80.7 403.3 82.3 417.2 83.5C431 84.7 445 85.3 459 87.3C473 89.3 487 92.7 501 89.5C515 86.3 529 76.7 542.8 70.7C556.7 64.7 570.3 62.3 584.2 62.5C598 62.7 612 65.3 626 69.7C640 74 654 80 668 80.7C682 81.3 696 76.7 709.8 76C723.7 75.3 737.3 78.7 751.2 79C765 79.3 779 76.7 793 74.3C807 72 821 70 835 73.7C849 77.3 863 86.7 876.8 87C890.7 87.3 904.3 78.7 918.2 76.7C932 74.7 946 79.3 953 81.7L960 84L960 101L953 101C946 101 932 101 918.2 101C904.3 101 890.7 101 876.8 101C863 101 849 101 835 101C821 101 807 101 793 101C779 101 765 101 751.2 101C737.3 101 723.7 101 709.8 101C696 101 682 101 668 101C654 101 640 101 626 101C612 101 598 101 584.2 101C570.3 101 556.7 101 542.8 101C529 101 515 101 501 101C487 101 473 101 459 101C445 101 431 101 417.2 101C403.3 101 389.7 101 375.8 101C362 101 348 101 334 101C320 101 306 101 292 101C278 101 264 101 250.2 101C236.3 101 222.7 101 208.8 101C195 101 181 101 167 101C153 101 139 101 125 101C111 101 97 101 83.2 101C69.3 101 55.7 101 41.8 101C28 101 14 101 7 101L0 101Z" fill="#17182d"></path></svg>